<svg viewBox="0 0 200 200" xmlns="http://www.w3.org/2000/svg">
  <!-- Bowl -->
  <ellipse cx="100" cy="160" rx="80" ry="25" fill="#f0f0f0" stroke="#ddd" stroke-width="2"/>
  <ellipse cx="100" cy="155" rx="75" ry="20" fill="#ffffff"/>
  
  <!-- Lettuce leaves -->
  <path d="M50 140 Q40 120 60 110 Q80 100 90 120 Q85 140 70 145 Q55 150 50 140z" fill="#4ade80"/>
  <path d="M80 130 Q70 110 90 100 Q110 95 120 115 Q115 135 100 140 Q85 145 80 130z" fill="#22c55e"/>
  <path d="M110 135 Q100 115 120 105 Q140 100 150 120 Q145 140 130 145 Q115 150 110 135z" fill="#16a34a"/>
  <path d="M70 150 Q60 130 80 120 Q100 115 110 135 Q105 155 90 160 Q75 165 70 150z" fill="#15803d"/>
  
  <!-- Croutons -->
  <rect x="85" y="125" width="8" height="8" rx="2" fill="#d97706" transform="rotate(15 89 129)"/>
  <rect x="105" y="120" width="8" height="8" rx="2" fill="#ea580c" transform="rotate(25 109 124)"/>
  <rect x="95" y="140" width="8" height="8" rx="2" fill="#dc2626" transform="rotate(-10 99 144)"/>
  <rect x="120" y="130" width="8" height="8" rx="2" fill="#b91c1c" transform="rotate(30 124 134)"/>
  
  <!-- Parmesan cheese -->
  <ellipse cx="90" cy="135" rx="4" ry="2" fill="#fef3c7" transform="rotate(20 90 135)"/>
  <ellipse cx="110" cy="125" rx="3" ry="2" fill="#fde68a" transform="rotate(-15 110 125)"/>
  <ellipse cx="105" cy="145" rx="4" ry="2" fill="#fcd34d" transform="rotate(45 105 145)"/>
  <ellipse cx="115" cy="135" rx="3" ry="2" fill="#f59e0b" transform="rotate(10 115 135)"/>
</svg>