<svg viewBox="0 0 200 200" xmlns="http://www.w3.org/2000/svg">
  <!-- Bowl -->
  <ellipse cx="100" cy="160" rx="80" ry="25" fill="#f0f0f0" stroke="#ddd" stroke-width="2"/>
  <ellipse cx="100" cy="155" rx="75" ry="20" fill="#ffffff"/>
  
  <!-- Lettuce base -->
  <path d="M40 140 Q35 125 50 115 Q70 105 85 125 Q80 145 65 150 Q50 155 40 140z" fill="#22c55e"/>
  <path d="M85 135 Q80 120 95 110 Q115 105 125 125 Q120 145 105 150 Q90 155 85 135z" fill="#16a34a"/>
  <path d="M125 140 Q120 125 135 115 Q155 110 165 130 Q160 150 145 155 Q130 160 125 140z" fill="#15803d"/>
  
  <!-- Tomatoes -->
  <circle cx="70" cy="130" r="8" fill="#dc2626"/>
  <circle cx="120" cy="125" r="8" fill="#ef4444"/>
  <circle cx="95" cy="145" r="8" fill="#f87171"/>
  <circle cx="135" cy="140" r="8" fill="#dc2626"/>
  
  <!-- Cucumbers -->
  <ellipse cx="85" cy="135" rx="6" ry="4" fill="#16a34a" transform="rotate(30 85 135)"/>
  <ellipse cx="110" cy="140" rx="6" ry="4" fill="#22c55e" transform="rotate(-20 110 140)"/>
  <ellipse cx="125" cy="130" rx="6" ry="4" fill="#16a34a" transform="rotate(45 125 130)"/>
  
  <!-- Olives -->
  <circle cx="80" cy="140" r="4" fill="#1f2937"/>
  <circle cx="105" cy="135" r="4" fill="#374151"/>
  <circle cx="130" cy="145" r="4" fill="#1f2937"/>
  
  <!-- Feta cheese -->
  <rect x="90" y="125" width="12" height="8" rx="2" fill="#f8fafc" transform="rotate(15 96 129)"/>
  <rect x="115" y="135" width="12" height="8" rx="2" fill="#ffffff" transform="rotate(-10 121 139)"/>
  <rect x="105" y="150" width="12" height="8" rx="2" fill="#f1f5f9" transform="rotate(25 111 154)"/>
</svg>