<svg id="Layer_1" data-name="Layer 1" xmlns="http://www.w3.org/2000/svg" viewBox="0 0 1569 398.22"><defs><style>.cls-1{fill:aqua;}.cls-2{fill:#007aff;}</style></defs><title>lotteryontv_black1</title><path class="cls-1" d="M1101.24,265.74A56.07,56.07,0,0,1,1084,156.32l1.31-.42V167l-.63.24a45.61,45.61,0,1,0,33.17,0l-.64-.24V155.9l1.31.42a56.07,56.07,0,0,1-17.26,109.42Zm0-72a5.25,5.25,0,0,1-5.24-5.24V146.1a5.24,5.24,0,0,1,10.48,0v42.37A5.25,5.25,0,0,1,1101.24,193.71Z"/><path class="cls-2" d="M1101.24,141.86a4.25,4.25,0,0,1,4.24,4.24v42.37a4.24,4.24,0,0,1-8.48,0V146.1a4.25,4.25,0,0,1,4.24-4.24m17,15.41a55.08,55.08,0,1,1-33.9,0v9a46.61,46.61,0,1,0,33.9,0v-9m-17-17.41a6.25,6.25,0,0,0-6.24,6.24v42.37a6.24,6.24,0,0,0,12.48,0V146.1a6.25,6.25,0,0,0-6.24-6.24Zm15,14.66v13.14l1.27.5a44.61,44.61,0,1,1-32.44,0l1.27-.5V154.52l-2.62.85a57,57,0,1,0,35.14,0l-2.62-.85Z"/><path d="M98.8,92.54H123v198l1331.36,1v23H98.8Z"/><path d="M324.17,180c0,61.47-39.19,94.06-87,94.06-49.47,0-84.2-36.57-84.2-90.61,0-56.7,36.95-93.79,87-93.79C291.1,89.62,324.17,127,324.17,180Zm-145.34,2.92c0,38.15,21.67,72.32,59.75,72.32,38.34,0,60-33.64,60-74.18,0-35.5-19.45-72.59-59.75-72.59C198.84,108.43,178.83,143.67,178.83,182.88Z"/><path d="M384.19,112.14h-57V92.54H465.89v19.6H408.64v159H384.19Z"/><path d="M532.86,112.14h-57V92.54H614.56v19.6H557.31v159H532.86Z"/><path d="M732.38,187.38H659.57v64.38h81.14V271.1H635.39V92.54H736.55v19.34h-77v56.43h72.81Z"/><path d="M772.11,94.92c12.23-2.38,29.74-3.71,46.41-3.71,25.84,0,42.52,4.5,54.19,14.57,9.45,8,14.73,20.14,14.73,33.91,0,23.58-15.57,39.21-35.3,45.57v.8c14.46,4.77,23.07,17.48,27.52,36,6.11,24.9,10.56,42.12,14.45,49h-25c-3.06-5-7.23-20.4-12.51-42.65C851,203.81,841,194.53,819.08,193.74H796.29V271.1H772.11Zm24.18,81.34H821c25.85,0,42.24-13.52,42.24-33.92,0-23-17.51-33.11-43.07-33.38-11.67,0-20,1.06-23.9,2.12Z"/><path d="M960.25,271.1V195.33L901.05,92.54h27.52L955,141.81c7.22,13.52,12.78,24.38,18.61,36.83h.56c5.28-11.66,11.67-23.31,18.9-36.83l27-49.27h27.51L984.7,195.07v76Z"/><path d="M1166.94,265.9V152.23h16.78l38.16,57.51a316.57,316.57,0,0,1,21.38,36.93l.36-.16c-1.42-15.18-1.77-29-1.77-46.72V152.23h14.49V265.9h-15.55L1203,208.22c-8.3-12.64-16.25-25.63-22.26-37.94l-.53.17c.88,14.33,1.24,28,1.24,46.88V265.9Z"/><path d="M1335.2,160.83v23.45h22.26v11.3H1335.2v44c0,10.12,3,15.85,11.66,15.85a36,36,0,0,0,9-1l.71,11.13c-3,1.18-7.78,2-13.78,2-7.25,0-13.08-2.2-16.79-6.24-4.41-4.39-6-11.64-6-21.25V195.58h-13.25v-11.3H1320V164.71Z"/><path d="M1382.54,184.28l16.79,45.87a202.63,202.63,0,0,1,6.89,20.91h.53c1.94-6.75,4.42-13.49,7.24-20.91l16.61-45.87h16.26l-33.57,81.62h-14.84l-32.51-81.62Z"/></svg>