<?xml version="1.0" encoding="utf-8"?>
<!-- Generator: Adobe Illustrator 27.1.1, SVG Export Plug-In . SVG Version: 6.00 Build 0)  -->
<svg version="1.1" id="Layer_1" xmlns="http://www.w3.org/2000/svg" xmlns:xlink="http://www.w3.org/1999/xlink" x="0px" y="0px"
	 viewBox="0 0 100 100" style="enable-background:new 0 0 100 100;" xml:space="preserve">
<style type="text/css">
	.st0{fill:#F7941D;}
</style>
<g>
	<path d="M60.89,87.19c15.12-4.17,24.27-14.12,27.95-29.2c0.31-1.28,0.57-2.69,0.67-4.06c0.33-2.5,0.34-5-0.01-7.5
		c-0.93-7.01-3.08-13.56-7.55-19.16c-6.61-8.3-14.97-13.58-25.7-14.72c-1.45-0.16-2.86-0.72-4.36-0.55
		c-0.53-2.28-0.51-4.55-0.02-6.83c13.64,0.72,25.19,5.63,34.14,16.33c5.03,6.01,8.06,12.82,9.73,20.34
		c0.37,1.68,0.45,3.42,0.66,5.14c0.27,2.31,0.29,4.63-0.01,6.94C94.28,71.46,85.66,84.2,69.03,91.1
		c-6.19,2.57-12.46,4.54-19.27,4.05c-0.6-4.92-0.33-9.85-0.14-14.78c3.56-0.4,7.13-0.38,10.69-0.01l-0.03,0.04
		C61.08,82.6,60,84.99,60.89,87.19z"/>
	<path class="st0" d="M11.14,52.83c-0.08,3.8,1.21,7.35,2.62,10.71C18,73.58,25.18,80.99,35.09,85.6c2.47,1.15,5.14,1.88,7.72,2.81
		c0.93,1.36,0.53,2.89,0.44,4.34c-0.09,1.36-1.25,1.53-2.35,1.57c-1.13,0.04-2.21-0.56-3.36-0.25c-6.67-1.9-12.46-5.35-17.68-9.88
		c-5.31-4.62-9.77-9.9-12.45-16.43c-1.75-4.26-3.35-8.63-3.64-13.33c0.19-3.01,0.25-6.01-0.04-9.02c1.23-8.53,4.06-16.24,9.4-23.3
		c5.03-6.64,11.42-11.28,18.2-15.67c0.9-0.58,1.91-0.84,2.98-0.79c1.34-0.51,1.57,0.48,1.58,1.35c0.07,6.29,0.14,12.59-0.03,18.88
		c-0.01,0.35-0.23,0.65-0.48,0.91c-1.4,0.06-2.8,0.12-4.2,0.17c-2.47,0.17-4.94,0.44-7.4-0.16c-0.03-1.39-0.06-2.78-0.1-4.17
		c-0.65-1.76-1.43-0.14-2.14-0.09c-5.75,6.18-8.6,13.75-10.43,21.8c-0.07,0.33,0.03,0.7,0.05,1.05
		C11.37,47.88,11.38,50.35,11.14,52.83z"/>
	<path d="M23.76,40.59c0.01-3.32,0.01-6.64,0.02-9.95c0.52-0.48,1.17-0.31,1.76-0.31c16.81-0.01,33.62-0.01,50.43-0.01
		c0.44,0,0.88,0,1.3,0.16c5.47,1.92,6.4,3.41,6.31,10.1c-1.7,0.69-3.48,0.27-5.22,0.29c-5.74,0.08-11.48,0-17.22,0.05
		c-1.05,0.56-0.57,1.55-0.58,2.34c-0.04,5.68-0.01,11.37-0.04,17.05c0,0.85,0.26,1.75-0.28,2.55l0.05,0.08
		c-3.55,0.37-7.1,0.32-10.65,0.02c-0.51-6.47-0.06-12.95-0.25-19.42c-0.03-0.87,0.54-1.95-0.56-2.62c-7.52-0.05-15.04,0-22.56-0.03
		C25.46,40.88,24.56,41.16,23.76,40.59z"/>
	<path class="st0" d="M31.16,76.76c-3.62-0.4-7.35-4.22-7.39-7.9c-0.08-8.15,0.02-16.3,0.05-24.45c3.48-0.67,6.99-0.22,10.49-0.23
		c1.76,0.42,1.6,1.82,1.61,3.14c0.05,6.13-0.11,12.25,0.08,18.38c0.56,1.38,1.79,0.89,2.75,0.89c6.17,0.05,12.34,0.01,18.51,0.04
		c1.03,0,2.13-0.26,3.08,0.42c0.29,3.19,0.45,6.38-0.08,9.56l0.04,0.09c-2.51,0.54-5.06,0.22-7.59,0.21
		C45.53,76.87,38.35,77.13,31.16,76.76z"/>
	<path class="st0" d="M35.36,26.79c0.02-6.3,0.04-12.6,0.03-18.89c0-0.89,0.35-2.03-1.1-2.25c0.59-0.47,1.17-0.92,1.72,0.04
		c0.17,7.05,0.48,14.11-0.15,21.15l-0.26,0.01L35.36,26.79z"/>
	<path class="st0" d="M37.53,94.06c0.22-0.13,0.42-0.32,0.66-0.37c1.47-0.37,3.52,0.77,4.34-0.69c0.67-1.2,0.23-3.03,0.28-4.59
		c0.16-0.07,0.32-0.08,0.48-0.02c0.68,2.04,0.21,4.13,0.26,6.2c0.02,0.8-0.54,1.02-1.26,0.66C40.57,95.39,39.09,94.56,37.53,94.06z"
		/>
	<path class="st0" d="M3.72,45.4c0.66,3,0.69,6.01,0.04,9.02C3.55,51.42,3.49,48.41,3.72,45.4z"/>
	<path class="st0" d="M35.99,66.04c0.7,1.03,1.76,0.55,2.65,0.55c6.31,0.04,12.61,0,18.92,0.05c0.9,0.01,1.94-0.43,2.69,0.51
		c-7.43-0.01-14.87,0.01-22.3-0.04c-0.92-0.01-2.23,0.58-2.54-1.05c0.17-0.24,0.33-0.22,0.49,0.02L35.99,66.04z"/>
	<path class="st0" d="M35.9,66.08c-0.16-0.01-0.33-0.01-0.49-0.02c-0.01-6.3-0.04-12.59-0.02-18.89c0-1.09-0.04-2.09-1.05-2.76
		c0.46-0.02,0.93-0.04,1.39-0.06C35.79,51.6,35.84,58.84,35.9,66.08z"/>
</g>
</svg>
